<?xml version="1.0" encoding="UTF-8"?>
<!DOCTYPE svg PUBLIC "-//W3C//DTD SVG 1.1//EN" "http://www.w3.org/Graphics/SVG/1.1/DTD/svg11.dtd">
<!-- Creator: CorelDRAW -->
<svg xmlns="http://www.w3.org/2000/svg" xml:space="preserve" width="86.822mm" height="37.3767mm" version="1.1" style="shape-rendering:geometricPrecision; text-rendering:geometricPrecision; image-rendering:optimizeQuality; fill-rule:evenodd; clip-rule:evenodd"
viewBox="0 0 2384.51 1026.53"
 xmlns:xlink="http://www.w3.org/1999/xlink"
 xmlns:xodm="http://www.corel.com/coreldraw/odm/2003">
 <defs>
  <style type="text/css">
   <![CDATA[
    .fil6 {fill:none;fill-rule:nonzero}
    .fil10 {fill:black}
    .fil11 {fill:white}
    .fil3 {fill:#00AB54;fill-rule:nonzero}
    .fil0 {fill:#0D4D8E;fill-rule:nonzero}
    .fil5 {fill:#252524;fill-rule:nonzero}
    .fil8 {fill:#3C7792;fill-rule:nonzero}
    .fil9 {fill:#6098C1;fill-rule:nonzero}
    .fil7 {fill:#C6D8E3;fill-rule:nonzero}
    .fil1 {fill:#F05549;fill-rule:nonzero}
    .fil2 {fill:#FEC23D;fill-rule:nonzero}
    .fil4 {fill:white;fill-rule:nonzero}
    .fil12 {fill:white;fill-rule:nonzero}
   ]]>
  </style>
     <clipPath id="id0" style="clip-rule:nonzero">
      <path d="M417.89 5.06c-289.12,0 -412.09,227.43 -412.09,507.97 0,280.55 122.97,508.44 412.09,508.44 289.12,0 412.09,-227.89 412.09,-508.44 0,-280.54 -122.97,-507.97 -412.09,-507.97z"/>
     </clipPath>
     <clipPath id="id1" style="clip-rule:nonzero">
      <path d="M417.34 212.67c0,0 136.61,4.7 139.53,-3.27 3.1,-8.46 14.39,-44.81 14.39,-68.74 0,-43.13 -43.45,-63 -56.33,-69.44 -32.6,-16.27 -69.7,-19.4 -97.59,-19.4 -27.9,0 -64.99,3.13 -97.59,19.4 -12.88,6.43 -56.33,26.31 -56.33,69.44 0,23.92 11.3,60.28 14.39,68.74 2.92,7.97 139.53,3.27 139.53,3.27z"/>
     </clipPath>
     <clipPath id="id2" style="clip-rule:nonzero">
      <path d="M266.23 325.06c-2.82,-12.56 -0.12,-37.5 7.64,-50.78 18.91,-32.38 58.19,-25.99 82.33,-9.86l0 -34.17c-13.89,-14.92 -67.49,-21.14 -98.58,6.93 -40.92,36.93 -26.65,131.75 -26.65,131.75l35.26 -43.86z"/>
     </clipPath>
     <clipPath id="id3" style="clip-rule:nonzero">
      <path d="M603.71 368.92c0,0 14.27,-94.82 -26.64,-131.75 -31.1,-28.07 -84.69,-21.84 -98.58,-6.93l0 34.17c24.14,-16.12 63.41,-22.52 82.33,9.86 7.76,13.28 10.46,38.22 7.64,50.78l35.26 43.86z"/>
     </clipPath>
     <clipPath id="id4" style="clip-rule:nonzero">
      <path d="M417.28 169.63c-36.75,0 -66.55,15.64 -66.55,34.93l0 158.8 133.09 0 0 -158.8c0,-19.29 -29.79,-34.93 -66.55,-34.93z"/>
     </clipPath>
     <clipPath id="id5" style="clip-rule:nonzero">
      <path d="M417.36 1026.52c83.07,0 124.73,-16.05 135.17,-19.2 8.49,-2.57 8.09,-12.61 1.94,-24.77 -5.45,-10.79 -46.81,-79.7 -53.57,-120.32 -8.74,-52.56 18.07,-84.23 47.41,-149.48 34.06,-75.78 92.62,-220.95 69.61,-312.52 -25.41,-101.05 -122.44,-132.81 -200.57,-132.81 -78.12,0 -175.16,31.76 -200.57,132.81 -23.02,91.57 35.54,236.73 69.61,312.52 29.33,65.24 56.14,96.92 47.41,149.48 -6.76,40.62 -48.12,109.54 -53.57,120.32 -6.15,12.16 -6.55,22.2 1.94,24.77 10.45,3.16 52.11,19.2 135.17,19.2l0.03 0z"/>
     </clipPath>
 </defs>
 <g id="Camada_x0020_1">
  <metadata id="CorelCorpID_0Corel-Layer"/>
  <g id="_1709520552320">
   <g>
    <path class="fil0" d="M761.01 969.73l11.68 -19.76 4.36 0 0 37.68 -4.2 0 0 -29.99 -0.1 0 -9.85 16.58 -3.88 0 -9.91 -16.58 -0.1 0 0 29.99 -4.2 0 0 -37.68 4.36 0 11.73 19.76 0.11 0zm-34.4 17.93l-4.31 0 0 -34.03 -11.57 0 0 -3.66 27.4 0 0 3.66 -11.52 0 0 34.03z"/>
    <g>
    </g>
    <g style="clip-path:url(#id0)">
     <g>
      <path class="fil1" d="M651.05 73.63c-32.34,-23.02 -69.36,-40.81 -111.32,-52.42l-122.39 499.03 233.71 -446.61z"/>
      <path class="fil2" d="M417.35 520.24l317.41 -361.94c-23.51,-33.2 -51.61,-61.98 -84.59,-85.31l-232.82 447.25z"/>
      <path class="fil0" d="M417.35 520.24l370.88 -259.69c-14.03,-37.34 -31.81,-71.66 -53.47,-102.25l-317.41 361.94z"/>
      <path class="fil3" d="M539.73 21.22c-36.93,-10.21 -77.66,-15.66 -122.39,-15.66l0 514.68 122.39 -499.03z"/>
      <path class="fil3" d="M653.82 951.28l-236.47 -431.03 113.83 487.83c46.72,-11.83 87.49,-31.19 122.65,-56.8l-0.01 0.01z"/>
      <path class="fil4" d="M653.82 951.28c31.75,-23.13 58.91,-51.37 81.71,-83.81l-318.18 -347.23 236.47 431.03z"/>
      <path class="fil2" d="M735.52 867.47c21.04,-29.93 38.37,-63.42 52.16,-99.78l-370.34 -247.45 318.18 347.23z"/>
      <path class="fil1" d="M816.03 665.35c6.05,-32.13 10.01,-65.62 11.97,-100.14l-410.65 -44.97 398.69 145.11z"/>
      <path class="fil5" d="M816.66 364.96c-6.73,-36.74 -16.15,-71.73 -28.43,-104.41l-370.88 259.7 399.32 -155.29z"/>
      <path class="fil4" d="M828.22 466.15c-1.8,-34.87 -5.61,-68.72 -11.56,-101.2l-399.32 155.29 410.87 -54.09z"/>
      <path class="fil3" d="M828 565.22c0.96,-17 1.44,-34.24 1.44,-51.69 0,-15.98 -0.42,-31.77 -1.22,-47.38l-410.87 54.09 410.65 44.97z"/>
      <path class="fil0" d="M787.68 767.69c12.16,-32.06 21.57,-66.34 28.35,-102.34l-398.69 -145.11 370.34 247.45z"/>
      <path class="fil5" d="M183.64 73.63c32.33,-23.02 69.36,-40.81 111.32,-52.42l122.39 499.03 -233.7 -446.61z"/>
      <path class="fil2" d="M417.35 520.24l-317.42 -361.94c23.51,-33.2 51.61,-61.98 84.59,-85.31l232.83 447.25z"/>
      <path class="fil1" d="M417.35 520.24l-370.89 -259.69c14.04,-37.34 31.81,-71.66 53.47,-102.25l317.42 361.94z"/>
      <path class="fil2" d="M294.96 21.22c36.92,-10.21 77.65,-15.66 122.39,-15.66l0 514.68 -122.39 -499.03z"/>
      <path class="fil2" d="M180.87 951.28l236.47 -431.03 -113.83 487.83c-46.72,-11.83 -87.49,-31.19 -122.65,-56.8l0.01 0.01z"/>
      <path class="fil1" d="M180.87 951.28c-31.75,-23.13 -58.91,-51.37 -81.71,-83.81l318.18 -347.23 -236.47 431.03z"/>
      <path class="fil5" d="M99.17 867.47c-21.04,-29.93 -38.38,-63.42 -52.16,-99.78l370.34 -247.45 -318.18 347.23z"/>
      <path class="fil4" d="M18.65 665.35c-6.05,-32.13 -10.01,-65.62 -11.97,-100.14l410.65 -44.97 -398.69 145.11z"/>
      <path class="fil4" d="M18.03 364.96c6.72,-36.74 16.15,-71.73 28.43,-104.41l370.89 259.7 -399.32 -155.29z"/>
      <path class="fil0" d="M6.47 466.15c1.8,-34.87 5.62,-68.72 11.56,-101.2l399.32 155.29 -410.87 -54.09z"/>
      <path class="fil1" d="M6.69 565.22c-0.88,-16.96 -1.44,-34.17 -1.44,-51.28 0,-0.11 0,-0.33 0,-0.44 0,-15.98 0.41,-31.78 1.22,-47.38l410.87 54.09 -410.66 45.01z"/>
      <path class="fil3" d="M47.01 767.69c-12.16,-32.06 -21.57,-66.34 -28.35,-102.34l398.69 -145.11 -370.34 247.45z"/>
     </g>
    </g>
    <path class="fil6" d="M417.89 5.06c-289.12,0 -412.09,227.43 -412.09,507.97 0,280.55 122.97,508.44 412.09,508.44 289.12,0 412.09,-227.89 412.09,-508.44 0,-280.54 -122.97,-507.97 -412.09,-507.97z"/>
    <path class="fil7" d="M417.34 212.67c0,0 136.61,4.7 139.53,-3.27 3.1,-8.46 14.39,-44.81 14.39,-68.74 0,-43.13 -43.45,-63 -56.33,-69.44 -32.6,-16.27 -69.7,-19.4 -97.59,-19.4 -27.9,0 -64.99,3.13 -97.59,19.4 -12.88,6.43 -56.33,26.31 -56.33,69.44 0,23.92 11.3,60.28 14.39,68.74 2.92,7.97 139.53,3.27 139.53,3.27z"/>
    <g>
    </g>
    <g style="clip-path:url(#id1)">
     <g>
      <path class="fil4" d="M353.26 195.23c-28.22,-10.45 -59.35,-25.77 -61.75,-32.79 -2.66,-7.76 -11,-38.4 -14.25,-52.69 -0.43,-1.93 -0.91,-3.97 -1.29,-5.91 13.54,-18 34.34,-27.92 43.16,-32.29 -0.21,2.06 0.01,5.37 1.22,10.69 3.25,14.28 9.24,47.15 12.37,54.74 2.59,6.27 28.12,23.47 50.49,37.62 -14.46,4.56 -25.35,11.91 -29.95,20.64l-0.01 -0.01zm128.31 0.05c-4.57,-8.73 -15.45,-16.09 -29.88,-20.66 22.38,-14.16 47.95,-31.37 50.54,-37.65 3.13,-7.59 9.12,-40.45 12.37,-54.74 1.18,-5.2 1.41,-8.48 1.23,-10.55 9.02,4.46 29.69,14.44 43.09,32.43 -0.3,1.46 -0.71,3.3 -1.24,5.65 -3.25,14.28 -11.59,44.92 -14.24,52.69 -2.41,7.03 -33.62,22.38 -61.87,32.83z"/>
     </g>
    </g>
    <path class="fil6" d="M417.34 212.67c0,0 136.61,4.7 139.53,-3.27 3.1,-8.46 14.39,-44.81 14.39,-68.74 0,-43.13 -43.45,-63 -56.33,-69.44 -32.6,-16.27 -69.7,-19.4 -97.59,-19.4 -27.9,0 -64.99,3.13 -97.59,19.4 -12.88,6.43 -56.33,26.31 -56.33,69.44 0,23.92 11.3,60.28 14.39,68.74 2.92,7.97 139.53,3.27 139.53,3.27z"/>
    <path class="fil8" d="M417.35 119.58c82.62,0 158.3,41.69 139.22,90.66 -9.59,24.61 -60.83,57.71 -139.22,57.71 -78.39,0 -129.63,-33.1 -139.22,-57.71 -19.08,-48.97 56.6,-90.66 139.22,-90.66z"/>
    <path class="fil9" d="M416.35 160.82c18.78,0 26.02,3.38 32.65,5.57 6.02,1.99 21.97,3.44 29.69,-6.41 7.89,-10.08 23.58,-10.24 39.78,-6.06 0,0 -25.85,-28.61 -102.13,-28.61 -76.28,0 -102.13,28.61 -102.13,28.61 16.21,-4.19 31.89,-4.02 39.79,6.06 7.71,9.85 23.67,8.4 29.68,6.41 6.64,-2.2 13.88,-5.57 32.66,-5.57z"/>
    <path class="fil10" d="M266.23 325.06c-2.82,-12.56 -0.12,-37.5 7.64,-50.78 18.91,-32.38 58.19,-25.99 82.33,-9.86l0 -34.17c-13.89,-14.92 -67.49,-21.14 -98.58,6.93 -40.92,36.93 -26.65,131.75 -26.65,131.75l35.26 -43.86z"/>
    <path class="fil7" d="M266.23 325.06c-2.82,-12.56 -0.12,-37.5 7.64,-50.78 18.91,-32.38 58.19,-25.99 82.33,-9.86l0 -34.17c-13.89,-14.92 -67.49,-21.14 -98.58,6.93 -40.92,36.93 -26.65,131.75 -26.65,131.75l35.26 -43.86z"/>
    <g>
    </g>
    <g style="clip-path:url(#id2)">
     <g>
      <path class="fil9" d="M260.35 337.03c0,0 -11.97,-63.56 25.34,-85.67 37.31,-22.11 70.52,6.06 70.52,6.06l-23.54 55.66 -72.31 23.95z"/>
     </g>
    </g>
    <path class="fil6" d="M266.23 325.06c-2.82,-12.56 -0.12,-37.5 7.64,-50.78 18.91,-32.38 58.19,-25.99 82.33,-9.86l0 -34.17c-13.89,-14.92 -67.49,-21.14 -98.58,6.93 -40.92,36.93 -26.65,131.75 -26.65,131.75l35.26 -43.86z"/>
    <path class="fil10" d="M603.71 368.92c0,0 14.27,-94.82 -26.64,-131.75 -31.1,-28.07 -84.69,-21.84 -98.58,-6.93l0 34.17c24.14,-16.12 63.41,-22.52 82.33,9.86 7.76,13.28 10.46,38.22 7.64,50.78l35.26 43.86z"/>
    <path class="fil7" d="M603.71 368.92c0,0 14.27,-94.82 -26.64,-131.75 -31.1,-28.07 -84.69,-21.84 -98.58,-6.93l0 34.17c24.14,-16.12 63.41,-22.52 82.33,9.86 7.76,13.28 10.46,38.22 7.64,50.78l35.26 43.86z"/>
    <g>
    </g>
    <g style="clip-path:url(#id3)">
     <g>
      <path class="fil9" d="M574.33 337.03c0,0 11.97,-63.56 -25.33,-85.67 -37.31,-22.11 -70.52,6.06 -70.52,6.06l23.54 55.66 72.32 23.95z"/>
     </g>
    </g>
    <path class="fil6" d="M603.71 368.92c0,0 14.27,-94.82 -26.64,-131.75 -31.1,-28.07 -84.69,-21.84 -98.58,-6.93l0 34.17c24.14,-16.12 63.41,-22.52 82.33,9.86 7.76,13.28 10.46,38.22 7.64,50.78l35.26 43.86z"/>
    <path class="fil7" d="M417.4 169.63c-36.75,0 -66.54,15.64 -66.54,34.93l0 158.8 133.09 0 0 -158.8c0,-19.29 -29.79,-34.93 -66.55,-34.93z"/>
    <g>
    </g>
    <g style="clip-path:url(#id4)">
     <g>
      <path class="fil4" d="M365.38 275.46l0 -86.22c0,-10.36 7.48,-13.89 17.69,-15.62l9.76 -1.65c0,0 -9.85,-0.87 -10.04,10.9 -0.2,11.77 -0.38,60.07 0.04,65.52 0.96,12.56 6.86,22.1 11.17,21.9 4.31,-0.2 -28.62,5.17 -28.62,5.17zm103.8 0l0 -86.22c0,-10.36 -7.48,-13.89 -17.69,-15.62l-9.76 -1.65c0,0 9.85,-0.87 10.04,10.9 0.2,11.77 0.38,60.07 -0.04,65.52 -0.96,12.56 -6.86,22.1 -11.17,21.9 -4.31,-0.2 28.62,5.17 28.62,5.17l-0.01 0z"/>
     </g>
    </g>
    <path class="fil6" d="M417.28 169.63c-36.75,0 -66.55,15.64 -66.55,34.93l0 158.8 133.09 0 0 -158.8c0,-19.29 -29.79,-34.93 -66.55,-34.93z"/>
    <path class="fil7" d="M727.86 869.64c-43.76,60.14 -100.39,101.91 -169.11,125.11 -0.57,-3.61 -2.03,-7.76 -4.27,-12.19 -5.45,-10.79 -46.81,-79.7 -53.57,-120.32 -8.74,-52.56 18.07,-84.23 47.41,-149.47 34.06,-75.78 92.62,-220.95 69.61,-312.52 -25.41,-101.06 -122.44,-132.81 -200.57,-132.81 -78.12,0 -175.16,31.76 -200.57,132.81 -23.02,91.56 35.54,236.73 69.61,312.52 29.33,65.24 56.14,96.91 47.41,149.47 -6.76,40.62 -48.12,109.54 -53.57,120.32 -2.25,4.43 -3.71,8.58 -4.27,12.19 -68.73,-23.2 -125.36,-64.96 -169.12,-125.11 -63.26,-86.95 -96.7,-210.18 -96.7,-356.38 0,-146.27 33.39,-269.5 96.55,-356.38 70.8,-97.39 175.33,-146.76 310.67,-146.76 135.35,0 239.87,49.38 310.67,146.76 63.16,86.88 96.55,210.11 96.55,356.38 0,146.19 -33.44,269.43 -96.7,356.38zm8.34 -718.71c-72.81,-100.15 -180.09,-150.93 -318.86,-150.93 -138.76,0 -246.04,50.78 -318.85,150.93 -64.43,88.62 -98.48,213.91 -98.48,362.33 0,148.35 34.11,273.64 98.64,362.33 47.99,65.96 110.95,110.41 187.9,133.13 2.14,0.69 4.77,1.53 7.93,2.48 1.74,0.52 3.87,0.28 6.17,0.03 2.42,-0.26 5.02,-0.51 7.54,0.12 3.89,0.97 7.19,5.3 11.96,6.28 22.22,4.59 54.14,8.89 97.17,8.89l0.03 0c43.03,0 74.95,-4.31 97.17,-8.89 5.39,-1.12 9.87,-5.9 14.14,-6.99 2.18,-0.55 4.3,-0.15 6.29,0.25 1.91,0.39 3.69,0.78 5.25,0.31 3.17,-0.94 5.79,-1.79 7.93,-2.48 76.95,-22.73 139.91,-67.18 187.89,-133.13 64.53,-88.69 98.64,-213.98 98.64,-362.33 0,-148.42 -34.06,-273.71 -98.48,-362.33l0.01 0z"/>
    <g>
    </g>
    <g style="clip-path:url(#id5)">
     <g>
      <path class="fil11" d="M320.16 1017.63c-8.6,-1.74 -17.25,-3.94 -25.67,-6.44 0.75,0.23 1.58,0.31 2.47,0.31 1.15,0 2.41,-0.14 3.71,-0.28 1.33,-0.15 2.68,-0.24 4.02,-0.27 1.17,0 2.36,0.1 3.52,0.39 3.89,0.97 7.19,5.3 11.96,6.28l0 0z"/>
      <path class="fil4" d="M320.16 1017.63c-4.77,-0.98 -8.07,-5.31 -11.96,-6.28 -1.1,-0.26 -2.23,-0.4 -3.35,-0.4 -0.05,0 -0.12,0.01 -0.17,0.01 -1.37,0 -2.72,0.14 -4.03,0.27 -1.31,0.14 -2.56,0.28 -3.71,0.28 -0.88,0 -1.72,-0.08 -2.47,-0.31 1.69,-9.07 5.12,-18.66 11.51,-28.31 23.41,-35.34 36.44,-79.16 42.14,-103.83 18.97,-82.12 -68.95,-147.71 -104.03,-381.52 -26.78,-178.54 91.97,-211.23 130.34,-215.72l15.19 -2.13c-139.23,48.01 -103.04,252.83 -74.55,353.47 36.02,127.19 59.36,180.81 52.86,245.02 -2.01,19.87 -14.88,67.93 -34.65,104.65 -7.07,13.12 -10.94,18.06 -13.13,34.79zm194.37 0c5.39,-1.12 9.87,-5.9 14.14,-6.99 0.76,-0.2 1.53,-0.27 2.27,-0.27 1.38,0 2.73,0.26 4.01,0.52 1.29,0.26 2.51,0.52 3.66,0.52 0.55,0 1.09,-0.06 1.6,-0.21 -8.45,2.52 -17.05,4.65 -25.69,6.41l0.01 0.02z"/>
      <path class="fil4" d="M514.53 1017.63c-2.18,-16.73 -6.06,-21.67 -13.13,-34.79 -19.77,-36.72 -32.64,-84.78 -34.65,-104.65 -6.5,-64.22 16.84,-117.83 52.86,-245.02 28.49,-100.64 64.68,-305.46 -74.55,-353.47l15.19 2.13c38.37,4.49 157.12,37.19 130.34,215.72 -35.07,233.81 -123,299.4 -104.03,381.52 5.7,24.67 18.73,68.49 42.13,103.83 6.39,9.65 9.82,19.24 11.52,28.31 -0.5,0.14 -1.01,0.21 -1.53,0.21 -0.02,0 -0.05,0 -0.07,0 -1.14,-0 -2.36,-0.26 -3.66,-0.52 -1.29,-0.26 -2.63,-0.52 -4.01,-0.52 -0.75,0 -1.51,0.07 -2.27,0.27 -4.27,1.09 -8.75,5.87 -14.14,6.99l0.01 0z"/>
      <path class="fil9" d="M417.34 458c-26.33,0 -51.84,1.12 -76.23,3.24 1.54,-40.72 35.14,-73.38 76.23,-73.38 41.09,0 74.69,32.66 76.23,73.38 -24.4,-2.12 -49.9,-3.24 -76.23,-3.24zm0 82.46c-38.83,0 -70.96,-29.17 -75.68,-66.74 25.03,-2.27 50.25,-3.4 75.37,-3.4 0.1,0 0.21,0 0.31,0 25.98,0 51.34,1.19 75.68,3.4 -4.72,37.57 -36.85,66.74 -75.68,66.74l0 -0.01zm88.58 -78.05c-0.94,-48.06 -40.3,-86.88 -88.58,-86.88 -48.28,0 -87.64,38.82 -88.58,86.88 -139.9,14.31 -240.01,61.98 -240.01,120.14l12.32 0c0,-50.06 98.07,-93.72 228.32,-107.62 5.34,43.8 42.73,77.85 87.95,77.85 45.22,0 82.61,-34.05 87.95,-77.85 130.25,13.9 228.32,57.56 228.32,107.62l12.32 0c0,-58.17 -100.11,-105.83 -240,-120.14l-0 0z"/>
     </g>
    </g>
    <path class="fil6" d="M417.36 1026.52c83.07,0 124.73,-16.05 135.17,-19.2 8.49,-2.57 8.09,-12.61 1.94,-24.77 -5.45,-10.79 -46.81,-79.7 -53.57,-120.32 -8.74,-52.56 18.07,-84.23 47.41,-149.48 34.06,-75.78 92.62,-220.95 69.61,-312.52 -25.41,-101.05 -122.44,-132.81 -200.57,-132.81 -78.12,0 -175.16,31.76 -200.57,132.81 -23.02,91.57 35.54,236.73 69.61,312.52 29.33,65.24 56.14,96.92 47.41,149.48 -6.76,40.62 -48.12,109.54 -53.57,120.32 -6.15,12.16 -6.55,22.2 1.94,24.77 10.45,3.16 52.11,19.2 135.17,19.2l0.03 0z"/>
    <path class="fil4" d="M364.63 1002.2c0,0 16.16,-123.51 52.71,-123.51 36.55,0 52.71,123.51 52.71,123.51 -58.61,13.52 -105.42,0 -105.42,0z"/>
   </g>
   <path class="fil12" d="M1534.94 355.38c1.26,-11.04 -2.11,-21.32 -10.31,-31.42l-38.68 -47.6 -19.16 15.57 35.52 43.71c6.18,7.59 7.91,11.8 7.32,18.02 -0.43,4.9 -3.42,9.95 -8.21,13.82 -4.77,3.88 -10.31,5.77 -15.19,5.19 -6.2,-0.7 -9.97,-3.25 -16.13,-10.87l-35.53 -43.68 -19.16 15.57 38.68 47.61c8.25,10.09 17.61,15.47 28.67,16.49 1.3,0.12 2.6,0.22 3.88,0.22 10.71,0.13 20.65,-3.67 30.29,-11.49 10.74,-8.77 16.62,-18.95 18.01,-31.14l-0.01 -0.01zm97.5 -125.51l-62.06 12.61c-2.62,0.43 -4.95,1.91 -6.47,4.09 -1.01,1.57 -1.54,3.41 -1.54,5.27 0,0.77 0.09,1.54 0.27,2.3l12.37 60.93c2.01,9.92 6.46,17.05 13.22,21.22 4.47,2.75 9.82,4.13 15.98,4.13 3.15,0 6.5,-0.36 10.07,-1.09l38.78 -7.87 -4.67 -23 -37.73 7.65c-7.72,1.58 -10.24,0.71 -12,-7.96l-1.32 -6.55 43.66 -8.85 -4.62 -22.74 -43.66 8.85 -3.31 -16.32 47.71 -9.68 -4.68 -23zm120.67 33.25l37.19 9.64 5.88 -22.68 -38.25 -9.91c-20.96,-5.43 -35.31,2.41 -40.41,22.08l-15.61 60.27c-0.27,0.91 -0.41,1.85 -0.41,2.8 0,1.68 0.43,3.34 1.26,4.81 1.39,2.25 3.64,3.86 6.22,4.43l14.2 3.68 10.06 -38.98 43.05 11.16 5.8 -22.42 -43.05 -11.16 1.68 -6.43c2.22,-8.55 4.77,-9.28 12.38,-7.3l0 0.01zm138.36 39.72l-3.77 -2.91c-5.89,-4.54 -10.55,-2.6 -13.96,-0.36l-88.33 57.16 23.09 13.06 56.31 -36.41 -9.7 32.72 -8.55 -6.42 -14.76 10.57 18.34 13.68 -4.27 14.7 20.23 18.52 29.32 -100.91c1.16,-3.55 2.01,-8.8 -3.94,-13.39l-0.01 -0.01zm-220.59 54.45c-72.44,0 -138.17,32.43 -178.27,80.36l12.72 15.7c36.41,-45.32 98.35,-76.47 165.56,-76.47 67.2,0 129.15,31.17 165.56,76.47l12.71 -15.7c-40.09,-47.94 -105.82,-80.35 -178.27,-80.35l-0.01 -0.01zm267.95 -74.3c-73.46,-63.42 -168.62,-98.35 -267.94,-98.35 -99.32,0 -194.48,34.93 -267.94,98.35 -7.02,6.06 -13.84,12.42 -20.39,18.97l13.12 16.21c6.64,-6.74 13.67,-13.33 20.84,-19.49 69.7,-60.16 160.05,-93.3 254.39,-93.3 94.35,0 184.69,33.14 254.39,93.3 7.13,6.16 14.14,12.79 20.77,19.5l13.13 -16.21c-6.55,-6.53 -13.36,-12.93 -20.36,-18.96l-0.01 -0.01zm207.01 378.38l27.53 -25.12c32.29,-29.48 50.75,-56.39 50.75,-84.7 0,-34.98 -26.44,-60.11 -67.13,-60.11 -41.25,0 -67.62,25.42 -66.81,65.02l33.61 1.92c-1.09,-21.04 10.79,-36.33 31.56,-36.33 19.94,0 32.99,12.56 32.43,32.23 -0.54,19.12 -14.88,38.59 -37.9,60.1 -14.76,13.8 -58.58,51.34 -58.58,51.34l0 26.52 134.5 0 0 -30.87 -79.96 -0.01zm-298.94 0l27.53 -25.12c32.29,-29.48 50.74,-56.39 50.74,-84.7 0,-34.98 -26.42,-60.11 -67.13,-60.11 -41.24,0 -67.62,25.42 -66.81,65.02l33.61 1.92c-1.09,-21.04 10.8,-36.33 31.55,-36.33 19.95,0 32.98,12.56 32.44,32.23 -0.55,19.12 -14.89,38.59 -37.9,60.1 -14.76,13.8 -58.6,51.34 -58.6,51.34l0 26.52 134.51 0 0 -30.87 -79.95 -0.01zm510.58 -46.99l0 -120.2 -46.71 0 -83.52 124.85 0 25.95 71.46 0 4.73 -30.6 -37.4 0 56.67 -86.78 0.02 -0.13 0 0.05 0.04 -0.05 0 86.88 -0.02 0 0.01 30.59 0.01 0 0 47.27 34.7 0.01 0 -47.27 27.04 -0.01 0 -30.59 -27.03 0.04zm-633.93 -22.75c0,31.87 -16.28,53.74 -42.1,58.38l6.79 43.9c53.38,-6.91 87.68,-46.08 87.68,-102.28 0,-61.81 -41.84,-103.1 -105.02,-103.1 -63.18,0 -105.04,41.29 -105.04,103.1 0,56.2 34.32,95.37 87.7,102.26l6.79 -43.9c-25.83,-4.61 -42.12,-26.49 -42.12,-58.36 0,-35.48 20.8,-59.31 52.65,-59.31 31.87,0 52.67,23.83 52.67,59.3l-0.01 0.01zm-182.17 -32.71c0,-37.16 -25.95,-64.76 -74.86,-64.76l-95.62 0.01 0 198.09 49.17 0 0 -154.09 41.8 0c16.66,0 27.87,8.2 27.87,24.58 0,15.31 -9.29,32.14 -27.87,32.14l-22.63 0 37.37 97.37 52.69 0 -36.15 -65.12c30.32,-6.28 48.22,-36.24 48.22,-68.2l0 -0.01zm-557.08 133.33l142.61 0 0 -42.34 -93.44 -0.01 0 -36.33 85.25 0 0 -39.9 -85.25 0.01 0 -36.88 93.44 0 0 -42.61 -142.61 -0.01 0 198.07zm1060.91 -99.11c0,-48.48 -12.3,-70.76 -35.8,-70.76 -25.13,0 -36.05,25.62 -36.05,69.92 0,49.04 12.28,71.32 36.05,71.32 24.86,0 35.8,-25.63 35.8,-70.48zm36.33 0c0,67.71 -27.59,101.69 -72.13,101.69 -48.35,0 -72.67,-38.18 -72.67,-102.54 0,-67.14 27.04,-100.86 72.67,-100.86 46.99,0 72.13,37.62 72.13,101.7zm-916.08 -98.96l49.17 0 0 123.21c0,21.85 13.93,33.61 34.43,33.61 22.68,0 34.42,-13.39 34.42,-33.59l0 -123.22 48.9 -0.01 0 125.13c0,45.9 -30.32,75.67 -83.32,75.67 -50.55,0 -83.6,-27.87 -83.6,-75.67l0 -125.13zm634.23 260.94l-15.11 0 -42.76 108.39 13.91 0.01 6.29 -16.42 13.39 -35.51 0.06 -0.01 16.73 -43.9 22.28 58.45 -32.56 0 1.78 10.46 34.66 0.01 10.31 26.92 14.21 -0.01 -43.19 -108.4zm-237.43 63.86c21.24,-0.32 35.13,-12.11 35.13,-32 0,-18.84 -13.9,-31.85 -36.02,-31.85l-48.3 0 0 108.39 12.71 0 0 -96.72 34.54 0c14.36,0 23.77,7.47 23.77,20.79 0,12.7 -8.37,21.22 -23.77,21.22l-22.42 0 46.79 54.71 16 0 -38.43 -44.54zm53.53 -63.85l14.65 0 41.26 65.34 40.66 -65.34 14.51 0 0 108.39 -12.7 0 0 -89.7 -39.47 63.1 -6.14 0 -40.07 -63.16 0 89.76 -12.7 0 0 -108.39zm435.34 0l-39.47 57.13 0 51.26 -12.7 -0.01 0 -51.26 -40.07 -57.12 14.8 0 31.7 47.68 31.53 -47.69 14.22 0zm-104.8 0l0 108.39 -13.75 0 -60.84 -88.8 0 88.8 -12.71 0 0 -108.39 13.77 0 60.84 88.36 0 -88.36 12.7 0zm-529.82 0l75.94 0 0 11.67 -63.22 0 0 36.93 58.75 0 0 11.06 -58.75 0 0 37.09 63.24 0 0 11.66 -75.94 -0.01 -0.02 -108.39zm-125.88 54.42c0,-33.19 21.22,-55.9 53.82,-55.9 25.4,0 44.7,13.9 48.87,34.68l-13.15 0c-4.34,-13.77 -18.54,-23.04 -35.58,-23.04 -24.82,0 -40.66,17.8 -40.66,44.26 0,26.61 16,44.11 40.97,44.11 22.27,0 38.57,-14.07 38.72,-34.39l1.05 -0.61 -48.75 0 0 -10.45 60.11 0c0.29,2.55 0.6,4.94 0.6,7.76 0,29.31 -20.63,49.04 -51.73,49.04 -33.03,0 -54.27,-22.12 -54.27,-55.45l0.01 -0.01z"/>
  </g>
 </g>
</svg>
